<svg width="119" height="208" viewBox="0 0 119 208" fill="none" xmlns="http://www.w3.org/2000/svg">
<g clip-path="url(#clip0_1471_2441)">
<path d="M200.797 39.9107L202.632 42.161L213.892 59.2488C216.083 62.5733 213.699 67 209.717 67H31.6782C27.0617 67 24.98 61.2212 28.5359 58.2771L30.6649 56.5145C39.6862 49.0456 51.464 45.7771 63.0442 47.5288C65.2294 47.8593 67.4579 47.3327 69.264 46.0589L77.4575 40.2802C91.9735 30.0425 111.584 30.9516 125.09 42.4884C128.623 45.5059 133.999 44.8934 136.817 41.2001C152.748 20.3247 184.204 19.5578 200.797 39.9107Z" stroke="#0F172A" stroke-width="2"/>
<rect x="58.0004" y="44" width="24" height="165" fill="#0F172A"/>
<rect x="130" y="89" width="24" height="120" transform="rotate(90 130 89)" fill="#0F172A"/>
<rect x="48.0004" y="29" width="24" height="180" fill="#F1F1EF" stroke="#001D32" stroke-width="2"/>
<mask id="mask0_1471_2441" style="mask-type:alpha" maskUnits="userSpaceOnUse" x="49" y="30" width="23" height="178">
<rect x="49.0004" y="30" width="22" height="178" fill="#F1F1EF"/>
</mask>
<g mask="url(#mask0_1471_2441)">
<path d="M56.5004 30L57.397 32.0622C60.0256 38.108 60.1598 44.9473 57.7703 51.0915L54.0056 60.7724C52.0544 65.7898 51.7749 71.3029 53.2087 76.4919L59.2686 98.423C60.7168 103.664 60.4167 109.235 58.4136 114.29L54.3106 124.645C52.1708 130.046 51.9784 136.023 53.7666 141.55L54.8237 144.818C55.9285 148.232 56.2851 151.845 55.8692 155.41L53.3762 176.778C53.1267 178.917 53.1545 181.079 53.4591 183.211L57.5004 211.5" stroke="#F12C00"/>
<path d="M64.5004 30L64.7246 30.5158C67.7441 37.4607 67.4529 45.3998 63.9328 52.1048L62.8346 54.1967C60.3445 58.9398 59.4437 64.3574 60.2652 69.651L66.6692 110.921C67.5254 116.439 66.2821 122.077 63.1848 126.723V126.723C58.7421 133.387 58.2108 141.921 61.7926 149.084L63.125 151.749C66.2339 157.967 66.6134 165.199 64.1725 171.708L61.7338 178.211C59.9537 182.958 59.6588 188.134 60.8885 193.052L65.5004 211.5" stroke="#F12C00"/>
<path d="M73.5004 89C71.0004 83 67.0004 78.5604 67.0004 70C67.0004 61.4396 69.5004 59 73.5004 51" stroke="#F12C00"/>
<path d="M73.5004 159C71.0004 153 67.0004 148.56 67.0004 140C67.0004 131.44 69.5004 129 73.5004 121" stroke="#F12C00"/>
<path d="M75.5004 209C73.0004 203 69.0004 198.56 69.0004 190C69.0004 181.44 71.5004 179 75.5004 171" stroke="#F12C00"/>
<path d="M46.0004 129C48.5004 123 52.5004 118.56 52.5004 110C52.5004 101.44 50.0004 99 46.0004 91" stroke="#F12C00"/>
<path d="M47.0004 53C49.5004 47 53.5004 42.5604 53.5004 34C53.5004 25.4396 51.0004 23 47.0004 15" stroke="#F12C00"/>
</g>
<rect x="120" y="74" width="24" height="120" transform="rotate(90 120 74)" fill="#F1F1EF" stroke="#001D32" stroke-width="2"/>
<mask id="mask1_1471_2441" style="mask-type:alpha" maskUnits="userSpaceOnUse" x="1" y="75" width="119" height="22">
<rect x="119" y="75" width="22" height="118" transform="rotate(90 119 75)" fill="#F1F1EF"/>
</mask>
<g mask="url(#mask1_1471_2441)">
<path d="M0.000366211 84L9.13427 81.0449C14.2191 79.3998 19.718 79.5768 24.6865 81.5455L36.3331 86.1602C40.9841 88.003 46.1092 88.2791 50.9312 86.9467L74.1478 80.5316C78.9217 79.2125 83.9938 79.4697 88.6098 81.2648L99.6762 85.5684C105.329 87.7666 111.621 87.6432 117.183 85.2249L120 84" stroke="#F12C00"/>
<path d="M0.000366211 92L6.59056 89.7346C12.5261 87.6943 19.0718 88.5156 24.3192 91.9593V91.9593C29.2014 95.1632 35.2273 96.1084 40.8559 94.5531L63.1704 88.3872C67.6205 87.1576 72.3377 87.2957 76.7082 88.7835L87.5145 92.4623C91.4324 93.796 95.6376 94.0479 99.6866 93.1914L119.5 89" stroke="#F12C00"/>
<path d="M65.0004 74.5C59.0004 77 54.5608 81 46.0004 81C37.44 81 35.0004 78.5 27.0004 74.5" stroke="#F12C00"/>
<path d="M134 74.5C128 77 123.561 81 115 81C106.44 81 104 78.5 96.0004 74.5" stroke="#F12C00"/>
<path d="M91.0004 99.5C85.0004 97 80.5608 93 72.0004 93C63.44 93 61.0004 95.5 53.0004 99.5" stroke="#F12C00"/>
<path d="M30.0004 100.5C24.0004 98 19.5608 94 11.0004 94C2.43995 94 0.000366211 96.5 -7.99963 100.5" stroke="#F12C00"/>
</g>
</g>
<defs>
<clipPath id="clip0_1471_2441">
<rect width="219" height="209" fill="white" transform="translate(0.000366211)"/>
</clipPath>
</defs>
</svg>
