<svg width="235" height="225" viewBox="0 0 235 225" fill="none" xmlns="http://www.w3.org/2000/svg">
<path d="M167.015 168.99C173.386 161.543 184.9 161.543 191.27 168.99L224.818 208.201C231.02 215.45 225.869 226.636 216.328 226.636H141.957C132.417 226.636 127.266 215.45 133.468 208.201L167.015 168.99Z" fill="#001D32" stroke="#001D32" stroke-width="3.19205"/>
<path d="M171.006 168.99C177.376 161.543 188.89 161.543 195.26 168.99L228.808 208.201C235.01 215.45 229.859 226.636 220.318 226.636H145.947C136.407 226.636 131.256 215.45 137.458 208.201L171.006 168.99Z" fill="#001D32" stroke="#001D32" stroke-width="3.19205"/>
<path d="M174.996 168.99C181.366 161.543 192.88 161.543 199.25 168.99L232.798 208.201C239 215.45 233.849 226.636 224.309 226.636H149.938C140.397 226.636 135.246 215.45 141.448 208.201L174.996 168.99Z" fill="#001D32" stroke="#001D32" stroke-width="3.19205"/>
<path d="M181.38 168.99C187.75 161.543 199.264 161.543 205.635 168.99L239.182 208.201C245.384 215.45 240.233 226.636 230.693 226.636H156.322C146.781 226.636 141.63 215.45 147.832 208.201L181.38 168.99Z" fill="#85909A" stroke="#001D32" stroke-width="3.19205"/>
<mask id="mask0_1575_2665" style="mask-type:alpha" maskUnits="userSpaceOnUse" x="145" y="163" width="97" height="64">
<path d="M181.38 168.989C187.75 161.543 199.264 161.543 205.635 168.989L239.182 208.2C245.384 215.45 240.233 226.636 230.693 226.636L156.322 226.636C146.782 226.636 141.63 215.45 147.833 208.2L181.38 168.989Z" fill="#F1F1EF"/>
</mask>
<g mask="url(#mask0_1575_2665)">
<ellipse cx="184.911" cy="218.585" rx="9.23164" ry="24.2758" transform="rotate(21.5724 184.911 218.585)" stroke="#001D32" stroke-width="1.59603"/>
<ellipse cx="184.911" cy="218.585" rx="19.489" ry="42.0552" transform="rotate(21.5724 184.911 218.585)" stroke="#001D32" stroke-width="1.59603"/>
<ellipse cx="189.82" cy="209.034" rx="32.4817" ry="48.8935" transform="rotate(21.5724 189.82 209.034)" stroke="#001D32" stroke-width="1.59603"/>
</g>
<rect x="11.9955" y="67.5042" width="371.874" height="47.8808" rx="9.57616" transform="rotate(14.2445 11.9955 67.5042)" fill="#85909A"/>
<path fill-rule="evenodd" clip-rule="evenodd" d="M21.2772 69.8605C16.1511 68.5591 10.9405 71.6597 9.63918 76.7859L2.57023 104.631C1.26887 109.757 4.3695 114.968 9.49566 116.269L31.1104 121.756C26.0097 120.437 22.9299 115.241 24.2276 110.129L31.2966 82.2841C32.598 77.1579 37.8085 74.0573 42.9347 75.3587L363.197 156.662C363.183 156.659 363.169 156.655 363.154 156.651L21.2772 69.8605Z" fill="#001D32"/>
<mask id="mask1_1575_2665" style="mask-type:alpha" maskUnits="userSpaceOnUse" x="2" y="69" width="369" height="135">
<rect x="12.2841" y="67.9891" width="371.076" height="47.0828" rx="9.17715" transform="rotate(14.2445 12.2841 67.9891)" fill="#A8926F" stroke="#001D32" stroke-width="0.798013"/>
</mask>
<g mask="url(#mask1_1575_2665)">
<path d="M13.1617 66.1536C13.1617 66.1536 40.3438 66.7561 51.5139 50.6974C62.2766 35.2208 89.9155 36.2392 89.9155 36.2392" stroke="#001D32" stroke-width="1.59603" stroke-miterlimit="10"/>
<path d="M9.23453 81.6232C9.23453 81.6232 47.5627 83.479 63.2059 61.565C78.1615 40.477 116.987 43.1117 116.987 43.1117" stroke="#001D32" stroke-width="1.59603" stroke-miterlimit="10"/>
<path d="M5.70006 95.5458C5.70006 95.5458 54.8361 98.8059 74.6378 71.5843C93.5929 45.4824 143.285 49.788 143.285 49.788" stroke="#001D32" stroke-width="1.59603" stroke-miterlimit="10"/>
<path d="M1.96922 110.242C1.96922 110.242 62.243 114.893 86.411 82.048C109.465 50.6884 170.357 56.6606 170.357 56.6606" stroke="#001D32" stroke-width="1.59603" stroke-miterlimit="10"/>
<path d="M-1.76162 124.938C-1.76162 124.938 69.3111 130.856 97.7418 92.4647C124.886 55.7318 196.655 63.3368 196.655 63.3368" stroke="#001D32" stroke-width="1.59603" stroke-miterlimit="10"/>
<path d="M-5.49245 139.634C-5.49245 139.634 76.7178 146.944 109.515 102.928C140.759 60.9364 223.727 70.2094 223.727 70.2094" stroke="#001D32" stroke-width="1.59603" stroke-miterlimit="10"/>
<path d="M-9.41965 155.104C-9.41965 155.104 83.6575 163.651 120.817 113.713C156.176 66.0995 250.025 76.8856 250.025 76.8856" stroke="#001D32" stroke-width="1.59603" stroke-miterlimit="10"/>
<path d="M-12.9541 169.026C-12.9541 169.026 90.8908 178.963 132.253 123.715C171.656 71.0823 276.324 83.5619 276.324 83.5619" stroke="#001D32" stroke-width="1.59603" stroke-miterlimit="10"/>
<path d="M-16.685 183.722C-16.685 183.722 98.3077 195.011 144.016 134.219C187.528 76.286 303.395 90.4345 303.395 90.4345" stroke="#001D32" stroke-width="1.59603" stroke-miterlimit="10"/>
<path d="M-20.4158 198.418C-20.4158 198.418 105.407 211.021 155.363 144.574C202.939 81.3724 329.694 97.1107 329.694 97.1107" stroke="#001D32" stroke-width="1.59603" stroke-miterlimit="10"/>
<path d="M-24.1466 213.114C-24.1466 213.114 112.788 227.108 167.141 155.104C218.847 86.5378 356.765 103.983 356.765 103.983" stroke="#001D32" stroke-width="1.59603" stroke-miterlimit="10"/>
<path d="M-27.8775 227.81C-27.8775 227.81 119.887 243.119 178.477 165.499C234.258 91.624 383.064 110.66 383.064 110.66" stroke="#001D32" stroke-width="1.59603" stroke-miterlimit="10"/>
<path d="M-31.6083 242.507C-31.6083 242.507 127.303 259.171 190.245 175.983C250.131 96.8239 410.135 117.532 410.135 117.532" stroke="#001D32" stroke-width="1.59603" stroke-miterlimit="10"/>
<path d="M-35.3391 257.203C-35.3391 257.203 134.669 275.25 201.967 186.477C266.014 101.986 437.207 124.405 437.207 124.405" stroke="#001D32" stroke-width="1.59603" stroke-miterlimit="10"/>
<path d="M-39.07 271.899C-39.07 271.899 141.768 291.261 213.354 196.842C281.425 107.072 463.505 131.081 463.505 131.081" stroke="#001D32" stroke-width="1.59603" stroke-miterlimit="10"/>
<path d="M-42.8008 286.595C-42.8008 286.595 149.2 307.318 225.133 207.372C297.323 112.278 490.577 137.954 490.577 137.954" stroke="#001D32" stroke-width="1.59603" stroke-miterlimit="10"/>
<path d="M-46.3353 300.517C-46.3353 300.517 156.435 322.621 236.573 217.354C312.76 117.26 516.875 144.63 516.875 144.63" stroke="#001D32" stroke-width="1.59603" stroke-miterlimit="10"/>
<path d="M-50.2625 315.987C-50.2625 315.987 163.665 339.408 248.242 228.23C328.617 122.527 543.947 151.502 543.947 151.502" stroke="#001D32" stroke-width="1.59603" stroke-miterlimit="10"/>
<path d="M-53.797 329.91C-53.797 329.91 170.94 354.725 259.678 238.233C344.044 127.546 570.245 158.179 570.245 158.179" stroke="#001D32" stroke-width="1.59603" stroke-miterlimit="10"/>
<path d="M-57.5278 344.606C-57.5278 344.606 178.332 370.767 271.461 248.742C359.951 132.715 597.317 165.051 597.317 165.051" stroke="#001D32" stroke-width="1.59603" stroke-miterlimit="10"/>
</g>
<circle cx="101.736" cy="44.6887" r="44.6887" fill="#FF9780"/>
<path fill-rule="evenodd" clip-rule="evenodd" d="M109.716 0.710459C88.8425 4.47312 73.0072 22.7317 73.0072 44.6887C73.0072 66.6458 88.8425 84.9044 109.716 88.667C107.126 89.1338 104.46 89.3775 101.736 89.3775C77.0548 89.3775 57.0469 69.3697 57.0469 44.6887C57.0469 20.0078 77.0548 0 101.736 0C104.46 0 107.126 0.243691 109.716 0.710459Z" fill="#F12C00"/>
<mask id="mask2_1575_2665" style="mask-type:alpha" maskUnits="userSpaceOnUse" x="57" y="0" width="90" height="90">
<circle cx="101.736" cy="44.6887" r="44.6887" fill="#FF9780"/>
</mask>
<g mask="url(#mask2_1575_2665)">
<path d="M136.449 60.649C111.312 82.9934 110.913 89.1543 91.1717 89.1543C67.9527 89.0244 78.5933 51.8709 65.426 42.2948C37.4956 12.7682 84.1794 -9.70362 91.6306 -9.70362C168.769 -9.70364 145.427 52.669 136.449 60.649Z" stroke="#F12C00" stroke-width="1.59603"/>
<path d="M113.307 23.0996C115.176 26.3345 111.312 28.7285 109.217 28.7285C106.125 28.7285 106.923 25.8926 106.923 24.3394C106.923 21.5892 104.928 19.1525 109.217 19.1524C110.913 19.1524 111.2 19.4518 113.307 23.0996Z" stroke="#F12C00" stroke-width="1.59603"/>
<path d="M104.52 43.834C111.026 43.834 114.024 40.4983 118.907 32.486C119.571 27.7552 125.191 11.9374 104.634 11.9375C99.5548 11.9376 89.38 19.383 96.3627 28.8273C99.6545 32.3863 96.3958 43.8015 104.52 43.834Z" stroke="#F12C00" stroke-width="1.59603"/>
<path d="M100.066 58.9408C110.985 58.9408 113.116 54.6633 124.75 41.8737C128.185 36.0598 139.713 4.72377 100.296 4.7238C94.4258 4.72386 72.0814 17.1781 86.0466 33.3165C92.6303 38.8812 86.911 58.8758 100.066 58.9408Z" stroke="#F12C00" stroke-width="1.59603"/>
<path d="M95.6185 74.0475C110.948 74.0475 112.213 68.8284 130.599 51.2614C136.806 44.3644 154.24 -2.48994 95.9627 -2.48991C89.302 -2.48989 54.7879 14.9732 75.7357 37.8056C85.6112 45.376 77.4312 73.9501 95.6185 74.0475Z" stroke="#F12C00" stroke-width="1.59603"/>
</g>
</svg>
